# xmcd
#
# Track frame offsets:
#	150
#	16856
#	38909
#	50331
#	66762
#	74778
#	97822
#	114793
#	127565
#	160135
#	182929
#	199161
#	211527
#	241038
#	259561
#	276172
#	289763
#	314568
#
# Disc length: 4285 seconds
#
# Revision: 1
# Processed by: cddbd v1.5.2PL0 Copyright (c) Steve Scherf et al.
# Submitted via: audiograbber 1.83.01
#
DISCID=f310bb12
DTITLE=Klaus Renft Combo - HITS and RARITÄTEN
DYEAR=2015
DGENRE=Rock
TTITLE0=Cäsars Blues Single Version
TTITLE1=Zwischen Liebe und Zorn
TTITLE2=Aber ich kann's nicht verstehn
TTITLE3=Flüsse und Tränen
TTITLE4=Baggerführer Willi
TTITLE5=Rockballade vom kleinen Otto
TTITLE6=Hilflos
TTITLE7=Glaubensfragen
TTITLE8=Lied von der alten Woche
TTITLE9=Sonne wie ein Clown
TTITLE10=Zukunft
TTITLE11=Chilenisches Metall
TTITLE12=So starb auch Neruda
TTITLE13=Was mir fehlt
TTITLE14=Besinnung
TTITLE15=Stop, Stop, Autostop
TTITLE16=Cäsars Blues LP Version
TTITLE17=Illegaler Mitschnitt des Berufsverbotes
EXTD=
EXTT0=
EXTT1=
EXTT2=
EXTT3=
EXTT4=
EXTT5=
EXTT6=
EXTT7=
EXTT8=
EXTT9=
EXTT10=
EXTT11=
EXTT12=
EXTT13=
EXTT14=
EXTT15=
EXTT16=
EXTT17=
PLAYORDER=
